<?xml version="1.0" encoding="utf-8"?>
<!-- Generator: Adobe Illustrator 19.0.0, SVG Export Plug-In . SVG Version: 6.00 Build 0)  -->
<svg version="1.0" id="Layer_1" xmlns="http://www.w3.org/2000/svg" xmlns:xlink="http://www.w3.org/1999/xlink" x="0px" y="0px"
	 viewBox="0 0 512 512" enable-background="new 0 0 512 512" xml:space="preserve">
<g id="XMLID_1_">
	<g id="small-flower-left_2_">
		<g id="XMLID_99_">
			<path id="XMLID_119_" fill="#FFFFFF" d="M333.7,179.9c0,0-49.4-20-31.8,68.6c57,17.8,63.8-31.8,63.8-31.8"/>
			<g id="XMLID_111_">
				<path fill="#111333" d="M335.1,175.1c-5.8-2.3-12.8-2.7-18.8-1.4c-14.1,3-20.5,16.6-22.3,29.7c-2.1,15.4,0.2,31.2,3.2,46.4
					c0.3,1.7,1.9,3,3.5,3.5c19.7,6,42.9,6.5,57.7-10c6.1-6.8,11-16.1,12.3-25.3c0.9-6.3-8.8-9-9.6-2.7c-1,7.3-4.1,14.1-8.8,19.8
					c-12.2,14.9-32.1,13.6-48.9,8.5c1.2,1.2,2.3,2.3,3.5,3.5c-2.4-12.5-4.3-25.4-3.4-38.2c0.5-6.7,1.8-14,5.9-19.6
					c2.4-3.2,5.3-4.9,9-5.9c1.9-0.5,2.2-0.5,4.9-0.5c0.8,0,1.6,0.1,2.4,0.1c1.9,0.1-0.1-0.1,1.5,0.2c1.8,0.4,3.7,0.8,5.4,1.5
					C338.4,187.1,341,177.5,335.1,175.1L335.1,175.1z"/>
			</g>
		</g>
		<g id="XMLID_91_">
			<path id="XMLID_108_" fill="#FFFFFF" d="M355.7,125.7c0,0,1.9-53.3-75.3-6.4c2.8,59.7,51.7,49,51.7,49"/>
			<g id="XMLID_101_">
				<path fill="#111333" d="M360.7,125.7c0.2-6.1-1.6-12.9-4.9-18.1c-7.7-12.3-22.3-14-35.5-11.3c-15.2,3.1-29.4,10.8-42.5,18.7
					c-1.5,0.9-2.6,2.6-2.5,4.3c1.1,21.1,8.6,42.9,29.6,51.3c8.7,3.5,19.2,4.5,28.4,2.5c6.3-1.3,3.6-11-2.7-9.6
					c-0.5,0.1-2.6,0.4-0.9,0.2c-1.6,0.2-3.3,0.3-5,0.4c-5.4,0.1-10.1-0.5-15.3-2.3c-17.6-6.3-23.3-25.4-24.2-42.4
					c-0.8,1.4-1.7,2.9-2.5,4.3c11-6.6,22.6-12.9,35-16.5c6.4-1.8,13.6-3.1,20.2-1.2c3.8,1.1,7,3.5,8.7,6.2c2.1,3.2,2.6,5,3.5,9.1
					c0.1,0.4,0.1,0.8,0.2,1.1c0.1,0.8-0.1-1.2,0,0.1c0.1,0.6,0.1,1.1,0.1,1.7c0,0.5,0.1,1.1,0,1.6
					C350.5,132.2,360.5,132.2,360.7,125.7L360.7,125.7z"/>
			</g>
		</g>
		<g id="XMLID_83_">
			<path id="XMLID_98_" fill="#FFFFFF" d="M452.1,175.3c0,0,49.4-20,31.8,68.6c-57,17.8-63.8-31.8-63.8-31.8"/>
			<g id="XMLID_90_">
				<path fill="#111333" d="M453.4,180.1c1.4-0.5,2.8-0.9,4.3-1.2c0.7-0.1,1.4-0.3,2.1-0.4c-1.4,0.2,1.1-0.1,1.6-0.1
					c0.8,0,1.6-0.1,2.5,0c0.9,0,2.7,0.3,2.1,0.2c4.4,0.8,6.8,1.9,9.7,5.1c3.8,4.1,5.7,10.9,6.5,16.8c1.9,13.9-0.4,28.5-3,42.1
					c1.2-1.2,2.3-2.3,3.5-3.5c-16.8,5.1-36.7,6.4-48.9-8.5c-4.7-5.7-7.7-12.5-8.8-19.8c-0.9-6.3-10.5-3.6-9.6,2.7
					c1.3,9.2,6.1,18.5,12.3,25.3c14.8,16.5,38,16,57.7,10c1.6-0.5,3.2-1.8,3.5-3.5c2.7-13.8,4.9-28.2,3.6-42.4
					c-0.7-8.1-2.5-16.6-7.3-23.3c-6.5-9-17-12.3-27.7-10.6c-2.2,0.3-4.4,0.8-6.5,1.6C444.8,172.9,447.4,182.5,453.4,180.1
					L453.4,180.1z"/>
			</g>
		</g>
		<g id="XMLID_75_">
			<path id="XMLID_86_" fill="#FFFFFF" d="M427.9,124.2c0,0-1.9-53.3,75.3-6.4c-2.8,59.7-51.7,49-51.7,49"/>
			<g id="XMLID_78_">
				<path fill="#111333" d="M432.9,124.2c0-0.4,0-0.8,0-1.2c0-0.4,0.1-0.9,0.1-1.3c0.1-1.3,0.1-1.1,0.1-0.9c0.6-3.7,1.4-6.4,2.8-8.8
					c1.8-3.1,4.2-5.5,7.6-6.9c5.8-2.4,12.6-1.7,18.6-0.3c13.8,3.2,26.6,10.1,38.6,17.4c-0.8-1.4-1.7-2.9-2.5-4.3
					c-0.9,17.1-6.5,36.1-24.2,42.4c-5.1,1.8-9.7,2.4-15.1,2.3c-1.7,0-3.5-0.2-5.2-0.4c1.7,0.2-0.4-0.1-0.9-0.2
					c-6.3-1.3-9,8.3-2.7,9.6c9.3,2,19.7,1,28.4-2.5c21-8.4,28.5-30.3,29.6-51.3c0.1-1.7-1-3.4-2.5-4.3c-12-7.2-24.8-14.1-38.5-17.8
					c-7.8-2.1-16.5-3.2-24.4-1c-10.2,2.9-17,11.5-19.1,21.7c-0.5,2.5-0.9,5.2-0.8,7.8C423.1,130.6,433.1,130.7,432.9,124.2
					L432.9,124.2z"/>
			</g>
		</g>
		<g id="XMLID_67_">
			<path id="XMLID_76_" fill="#FFFFFF" d="M413.5,119.5c0,0,48.8-21.5-27-70.6c-52.5,28.5-21.6,67.9-21.6,67.9"/>
			<g id="XMLID_64_">
				<path fill="#111333" d="M416,123.8c5.6-2.5,10.8-7.2,14-12.3c7.7-12.2,2.6-26.3-5.5-36.8C415,62.4,401.9,53,389,44.6
					c-1.5-1-3.5-0.8-5,0c-18,10-34.7,26.3-33,48.5c0.7,9.7,4.4,19.5,10.4,27.2c3.9,5.1,11-2,7.1-7.1c1.7,2.2-0.1-0.2-0.5-0.8
					c-0.9-1.4-1.8-2.9-2.6-4.4c-2.2-4.3-3.8-9.2-4.3-14.1c-2-19,12.7-32.3,28-40.7c-1.7,0-3.4,0-5,0c12.5,8.1,25.9,17.4,34.4,30
					c3.9,5.7,6.7,12.6,5.1,18.6c-1.6,6.1-6.4,10.7-12.5,13.4C405.1,117.8,410.2,126.4,416,123.8L416,123.8z"/>
			</g>
		</g>
		<g id="XMLID_58_">
			<path id="XMLID_62_" fill="#FFFFFF" d="M416.6,221c0,0,48.8,21.5-27,70.6c-52.5-28.5-21.6-67.9-21.6-67.9"/>
			<g id="XMLID_45_">
				<path fill="#111333" d="M414.1,225.3c6.1,2.7,10.9,7.3,12.5,13.4c1.6,6-1.2,12.9-5.1,18.6c-8.5,12.5-21.9,21.8-34.4,30
					c1.7,0,3.4,0,5,0c-15.2-8.4-30-21.7-28-40.7c0.5-4.9,2.1-9.8,4.3-14.1c0.8-1.5,1.6-2.9,2.5-4.3c0.4-0.6,2.3-3.1,0.6-0.9
					c3.9-5-3.1-12.1-7.1-7.1c-6,7.7-9.6,17.5-10.4,27.2c-1.7,22.2,15,38.6,33,48.5c1.5,0.8,3.5,1,5,0c11.8-7.7,23.6-16.1,32.8-26.8
					c5.3-6.1,10.1-13.3,11.6-21.4c2-10.6-2.6-20.3-10.8-26.8c-2-1.6-4.2-3.1-6.6-4.2C413.3,214.1,408.2,222.7,414.1,225.3
					L414.1,225.3z"/>
			</g>
		</g>
		<g id="XMLID_30_">
			<circle id="XMLID_110_" fill="#FFFFFF" cx="391.5" cy="169.3" r="51.6"/>
			<g id="XMLID_35_">
				<path fill="#111333" d="M438.1,169.3c-0.3,19.3-12.2,37.2-30.6,43.8c-18.5,6.6-39.5,0.9-52-14.2c-12.5-15.1-13.9-37.2-3.8-53.9
					c10-16.4,29.8-25.3,48.7-21.5C422.2,127.9,437.8,147.1,438.1,169.3c0.1,6.4,10.1,6.4,10,0c-0.3-23.7-15-45-37.3-53.2
					c-22-8.1-47.9-1.1-62.8,17c-15.1,18.4-17.4,45-4.9,65.5c12.3,20.2,36.2,30.6,59.3,26.2c26.5-5,45.3-29,45.7-55.5
					C448.2,162.8,438.2,162.8,438.1,169.3z"/>
			</g>
		</g>
	</g>
	<g id="small-flower-left_3_">
		<g id="XMLID_106_">
			<path id="XMLID_173_" fill="#FFFFFF" d="M62.1,192.2c0,0-49.4-20-31.8,68.6c57,17.8,63.8-31.8,63.8-31.8"/>
			<g id="XMLID_137_">
				<path fill="#111333" d="M63.4,187.3c-5.8-2.3-12.8-2.7-18.8-1.4c-14.1,3-20.5,16.6-22.3,29.7c-2.1,15.4,0.2,31.2,3.2,46.4
					c0.3,1.7,1.9,3,3.5,3.5c19.7,6,42.9,6.5,57.7-10c6.1-6.8,11-16.1,12.3-25.3c0.9-6.3-8.8-9-9.6-2.7c-1,7.3-4.1,14.1-8.8,19.8
					c-12.2,14.9-32.1,13.6-48.9,8.5c1.2,1.2,2.3,2.3,3.5,3.5c-2.4-12.5-4.3-25.4-3.4-38.2c0.5-6.7,1.8-14,5.9-19.6
					c2.4-3.2,5.3-4.9,9-5.9c1.9-0.5,2.2-0.5,4.9-0.5c0.8,0,1.6,0.1,2.4,0.1c1.9,0.1-0.1-0.1,1.5,0.2c1.8,0.4,3.7,0.8,5.4,1.5
					C66.8,199.4,69.4,189.7,63.4,187.3L63.4,187.3z"/>
			</g>
		</g>
		<g id="XMLID_97_">
			<path id="XMLID_171_" fill="#FFFFFF" d="M84.1,138c0,0,1.9-53.3-75.3-6.4c2.8,59.7,51.7,49,51.7,49"/>
			<g id="XMLID_130_">
				<path fill="#111333" d="M89.1,138c0.2-6.1-1.6-12.9-4.9-18.1c-7.7-12.3-22.3-14-35.5-11.3c-15.2,3.1-29.4,10.8-42.5,18.7
					c-1.5,0.9-2.6,2.6-2.5,4.3c1.1,21.1,8.6,42.9,29.6,51.3c8.7,3.5,19.2,4.5,28.4,2.5c6.3-1.3,3.6-11-2.7-9.6
					c-0.5,0.1-2.6,0.4-0.9,0.2c-1.6,0.2-3.3,0.3-5,0.4c-5.4,0.1-10.1-0.5-15.3-2.3c-17.6-6.3-23.3-25.4-24.2-42.4
					c-0.8,1.4-1.7,2.9-2.5,4.3c11-6.6,22.6-12.9,35-16.5c6.4-1.8,13.6-3.1,20.2-1.2c3.8,1.1,7,3.5,8.7,6.2c2.1,3.2,2.6,5,3.5,9.1
					c0.1,0.4,0.1,0.8,0.2,1.1c0.1,0.8-0.1-1.2,0,0.1c0.1,0.6,0.1,1.1,0.1,1.7c0,0.5,0.1,1.1,0,1.6C78.9,144.4,88.9,144.4,89.1,138
					L89.1,138z"/>
			</g>
		</g>
		<g id="XMLID_88_">
			<path id="XMLID_170_" fill="#FFFFFF" d="M180.4,187.6c0,0,49.4-20,31.8,68.6c-57,17.8-63.8-31.8-63.8-31.8"/>
			<g id="XMLID_96_">
				<path fill="#111333" d="M181.8,192.4c1.4-0.5,2.8-0.9,4.3-1.2c0.7-0.1,1.4-0.3,2.1-0.4c-1.4,0.2,1.1-0.1,1.6-0.1
					c0.8,0,1.6-0.1,2.5,0c0.9,0,2.7,0.3,2.1,0.2c4.4,0.8,6.8,1.9,9.7,5.1c3.8,4.1,5.7,10.9,6.5,16.8c1.9,13.9-0.4,28.5-3,42.1
					c1.2-1.2,2.3-2.3,3.5-3.5c-16.8,5.1-36.7,6.4-48.9-8.5c-4.7-5.7-7.7-12.5-8.8-19.8c-0.9-6.3-10.5-3.6-9.6,2.7
					c1.3,9.2,6.1,18.5,12.3,25.3c14.8,16.5,38,16,57.7,10c1.6-0.5,3.2-1.8,3.5-3.5c2.7-13.8,4.9-28.2,3.6-42.4
					c-0.7-8.1-2.5-16.6-7.3-23.3c-6.5-9-17-12.3-27.7-10.6c-2.2,0.3-4.4,0.8-6.5,1.6C173.2,185.1,175.8,194.8,181.8,192.4
					L181.8,192.4z"/>
			</g>
		</g>
		<g id="XMLID_79_">
			<path id="XMLID_166_" fill="#FFFFFF" d="M156.3,136.5c0,0-1.9-53.3,75.3-6.4c-2.8,59.7-51.7,49-51.7,49"/>
			<g id="XMLID_50_">
				<path fill="#111333" d="M161.3,136.5c0-0.4,0-0.8,0-1.2c0-0.4,0.1-0.9,0.1-1.3c0.1-1.3,0.1-1.1,0.1-0.9c0.6-3.7,1.4-6.4,2.8-8.8
					c1.8-3.1,4.2-5.5,7.6-6.9c5.8-2.4,12.6-1.7,18.6-0.3c13.8,3.2,26.6,10.1,38.6,17.4c-0.8-1.4-1.7-2.9-2.5-4.3
					c-0.9,17.1-6.5,36.1-24.2,42.4c-5.1,1.8-9.7,2.4-15.1,2.3c-1.7,0-3.5-0.2-5.2-0.4c1.7,0.2-0.4-0.1-0.9-0.2
					c-6.3-1.3-9,8.3-2.7,9.6c9.3,2,19.7,1,28.4-2.5c21-8.4,28.5-30.3,29.6-51.3c0.1-1.7-1-3.4-2.5-4.3c-12-7.2-24.8-14.1-38.5-17.8
					c-7.8-2.1-16.5-3.2-24.4-1c-10.2,2.9-17,11.5-19.1,21.7c-0.5,2.5-0.9,5.2-0.8,7.8C151.5,142.9,161.5,142.9,161.3,136.5
					L161.3,136.5z"/>
			</g>
		</g>
		<g id="XMLID_70_">
			<path id="XMLID_163_" fill="#FFFFFF" d="M141.9,131.7c0,0,48.8-21.5-27-70.6C62.4,89.6,93.3,129,93.3,129"/>
			<g id="XMLID_43_">
				<path fill="#111333" d="M144.4,136c5.6-2.5,10.8-7.2,14-12.3c7.7-12.2,2.6-26.3-5.5-36.8c-9.5-12.3-22.6-21.7-35.5-30.1
					c-1.5-1-3.5-0.8-5,0c-18,10-34.7,26.3-33,48.5c0.7,9.7,4.4,19.5,10.4,27.2c3.9,5.1,11-2,7.1-7.1c1.7,2.2-0.1-0.2-0.5-0.8
					c-0.9-1.4-1.8-2.9-2.6-4.4c-2.2-4.3-3.8-9.2-4.3-14.1c-2-19,12.7-32.3,28-40.7c-1.7,0-3.4,0-5,0c12.5,8.1,25.9,17.4,34.4,30
					c3.9,5.7,6.7,12.6,5.1,18.6c-1.6,6.1-6.4,10.7-12.5,13.4C133.5,130,138.6,138.6,144.4,136L144.4,136z"/>
			</g>
		</g>
		<g id="XMLID_61_">
			<path id="XMLID_162_" fill="#FFFFFF" d="M145,233.3c0,0,48.8,21.5-27,70.6C65.5,275.4,96.3,236,96.3,236"/>
			<g id="XMLID_36_">
				<path fill="#111333" d="M142.4,237.6c6.1,2.7,10.9,7.3,12.5,13.4c1.6,6-1.2,12.9-5.1,18.6c-8.5,12.5-21.9,21.8-34.4,30
					c1.7,0,3.4,0,5,0c-15.2-8.4-30-21.7-28-40.7c0.5-4.9,2.1-9.8,4.3-14.1c0.8-1.5,1.6-2.9,2.5-4.3c0.4-0.6,2.3-3.1,0.6-0.9
					c3.9-5-3.1-12.1-7.1-7.1c-6,7.7-9.6,17.5-10.4,27.2c-1.7,22.2,15,38.6,33,48.5c1.5,0.8,3.5,1,5,0c11.8-7.7,23.6-16.1,32.8-26.8
					c5.3-6.1,10.1-13.3,11.6-21.4c2-10.6-2.6-20.3-10.8-26.8c-2-1.6-4.2-3.1-6.6-4.2C141.7,226.4,136.6,235,142.4,237.6L142.4,237.6
					z"/>
			</g>
		</g>
		<g id="XMLID_32_">
			<circle id="XMLID_158_" fill="#FFFFFF" cx="119.9" cy="181.5" r="51.6"/>
			<g id="XMLID_37_">
				<path fill="#111333" d="M166.5,181.5c-0.3,19.3-12.2,37.2-30.6,43.8c-18.5,6.6-39.5,0.9-52-14.2C71.3,196,69.9,174,80.1,157.3
					c10-16.4,29.8-25.3,48.7-21.5C150.6,140.2,166.2,159.3,166.5,181.5c0.1,6.4,10.1,6.4,10,0c-0.3-23.7-15-45-37.3-53.2
					c-22-8.1-47.9-1.1-62.8,17c-15.1,18.4-17.4,45-4.9,65.5c12.3,20.2,36.2,30.6,59.3,26.2c26.5-5,45.3-29,45.7-55.5
					C176.6,175.1,166.6,175.1,166.5,181.5z"/>
			</g>
		</g>
	</g>
	<g id="small-flower-left_1_">
		<g id="XMLID_257_">
			<path id="XMLID_156_" fill="#FFFFFF" d="M201.8,351.4c0,0-49.4-20-31.8,68.6c57,17.8,63.8-31.8,63.8-31.8"/>
			<g id="XMLID_38_">
				<path fill="#111333" d="M203.1,346.6c-5.8-2.3-12.8-2.7-18.8-1.4c-14.1,3-20.5,16.6-22.3,29.7c-2.1,15.4,0.2,31.2,3.2,46.4
					c0.3,1.7,1.9,3,3.5,3.5c19.7,6,42.9,6.5,57.7-10c6.1-6.8,11-16.1,12.3-25.3c0.9-6.3-8.8-9-9.6-2.7c-1,7.3-4.1,14.1-8.8,19.8
					c-12.2,14.9-32.1,13.6-48.9,8.5c1.2,1.2,2.3,2.3,3.5,3.5c-2.4-12.5-4.3-25.4-3.4-38.2c0.5-6.7,1.8-14,5.9-19.6
					c2.4-3.2,5.3-4.9,9-5.9c1.9-0.5,2.2-0.5,4.9-0.5c0.8,0,1.6,0.1,2.4,0.1c1.9,0.1-0.1-0.1,1.5,0.2c1.8,0.4,3.7,0.8,5.4,1.5
					C206.4,358.6,209,349,203.1,346.6L203.1,346.6z"/>
			</g>
		</g>
		<g id="XMLID_249_">
			<path id="XMLID_151_" fill="#FFFFFF" d="M223.8,297.3c0,0,1.9-53.3-75.3-6.4c2.8,59.7,51.7,49,51.7,49"/>
			<g id="XMLID_39_">
				<path fill="#111333" d="M228.8,297.3c0.2-6.1-1.6-12.9-4.9-18.1c-7.7-12.3-22.3-14-35.5-11.3c-15.2,3.1-29.4,10.8-42.5,18.7
					c-1.5,0.9-2.6,2.6-2.5,4.3c1.1,21.1,8.6,42.9,29.6,51.3c8.7,3.5,19.2,4.5,28.4,2.5c6.3-1.3,3.6-11-2.7-9.6
					c-0.5,0.1-2.6,0.4-0.9,0.2c-1.6,0.2-3.3,0.3-5,0.4c-5.4,0.1-10.1-0.5-15.3-2.3c-17.6-6.3-23.3-25.4-24.2-42.4
					c-0.8,1.4-1.7,2.9-2.5,4.3c11-6.6,22.6-12.9,35-16.5c6.4-1.8,13.6-3.1,20.2-1.2c3.8,1.1,7,3.5,8.7,6.2c2.1,3.2,2.6,5,3.5,9.1
					c0.1,0.4,0.1,0.8,0.2,1.1c0.1,0.8-0.1-1.2,0,0.1c0.1,0.6,0.1,1.1,0.1,1.7c0,0.5,0.1,1.1,0,1.6
					C218.6,303.7,228.6,303.7,228.8,297.3L228.8,297.3z"/>
			</g>
		</g>
		<g id="XMLID_241_">
			<path id="XMLID_149_" fill="#FFFFFF" d="M320.1,346.8c0,0,49.4-20,31.8,68.6c-57,17.8-63.8-31.8-63.8-31.8"/>
			<g id="XMLID_40_">
				<path fill="#111333" d="M321.4,351.6c1.4-0.5,2.8-0.9,4.3-1.2c0.7-0.1,1.4-0.3,2.1-0.4c-1.4,0.2,1.1-0.1,1.6-0.1
					c0.8,0,1.6-0.1,2.5,0c0.9,0,2.7,0.3,2.1,0.2c4.4,0.8,6.8,1.9,9.7,5.1c3.8,4.1,5.7,10.9,6.5,16.8c1.9,13.9-0.4,28.5-3,42.1
					c1.2-1.2,2.3-2.3,3.5-3.5c-16.8,5.1-36.7,6.4-48.9-8.5c-4.7-5.7-7.7-12.5-8.8-19.8c-0.9-6.3-10.5-3.6-9.6,2.7
					c1.3,9.2,6.1,18.5,12.3,25.3c14.8,16.5,38,16,57.7,10c1.6-0.5,3.2-1.8,3.5-3.5c2.7-13.8,4.9-28.2,3.6-42.4
					c-0.7-8.1-2.5-16.6-7.3-23.3c-6.5-9-17-12.3-27.7-10.6c-2.2,0.3-4.4,0.8-6.5,1.6C312.9,344.4,315.4,354,321.4,351.6L321.4,351.6
					z"/>
			</g>
		</g>
		<g id="XMLID_233_">
			<path id="XMLID_148_" fill="#FFFFFF" d="M295.9,295.7c0,0-1.9-53.3,75.3-6.4c-2.8,59.7-51.7,49-51.7,49"/>
			<g id="XMLID_41_">
				<path fill="#111333" d="M300.9,295.7c0-0.4,0-0.8,0-1.2c0-0.4,0.1-0.9,0.1-1.3c0.1-1.3,0.1-1.1,0.1-0.9c0.6-3.7,1.4-6.4,2.8-8.8
					c1.8-3.1,4.2-5.5,7.6-6.9c5.8-2.4,12.6-1.7,18.6-0.3c13.8,3.2,26.6,10.1,38.6,17.4c-0.8-1.4-1.7-2.9-2.5-4.3
					c-0.9,17.1-6.5,36.1-24.2,42.4c-5.1,1.8-9.7,2.4-15.1,2.3c-1.7,0-3.5-0.2-5.2-0.4c1.7,0.2-0.4-0.1-0.9-0.2
					c-6.3-1.3-9,8.3-2.7,9.6c9.3,2,19.7,1,28.4-2.5c21-8.4,28.5-30.3,29.6-51.3c0.1-1.7-1-3.4-2.5-4.3c-12-7.2-24.8-14.1-38.5-17.8
					c-7.8-2.1-16.5-3.2-24.4-1c-10.2,2.9-17,11.5-19.1,21.7c-0.5,2.5-0.9,5.2-0.8,7.8C291.1,302.1,301.1,302.2,300.9,295.7
					L300.9,295.7z"/>
			</g>
		</g>
		<g id="XMLID_225_">
			<path id="XMLID_142_" fill="#FFFFFF" d="M281.6,291c0,0,48.8-21.5-27-70.6c-52.5,28.5-21.6,67.9-21.6,67.9"/>
			<g id="XMLID_66_">
				<path fill="#111333" d="M284.1,295.3c5.6-2.5,10.8-7.2,14-12.3c7.7-12.2,2.6-26.3-5.5-36.8c-9.5-12.3-22.6-21.7-35.5-30.1
					c-1.5-1-3.5-0.8-5,0c-18,10-34.7,26.3-33,48.5c0.7,9.7,4.4,19.5,10.4,27.2c3.9,5.1,11-2,7.1-7.1c1.7,2.2-0.1-0.2-0.5-0.8
					c-0.9-1.4-1.8-2.9-2.6-4.4c-2.2-4.3-3.8-9.2-4.3-14.1c-2-19,12.7-32.3,28-40.7c-1.7,0-3.4,0-5,0c12.5,8.1,25.9,17.4,34.4,30
					c3.9,5.7,6.7,12.6,5.1,18.6c-1.6,6.1-6.4,10.7-12.5,13.4C273.2,289.3,278.2,297.9,284.1,295.3L284.1,295.3z"/>
			</g>
		</g>
		<g id="XMLID_215_">
			<path id="XMLID_141_" fill="#FFFFFF" d="M284.6,392.5c0,0,48.8,21.5-27,70.6c-52.5-28.5-21.6-67.9-21.6-67.9"/>
			<g id="XMLID_118_">
				<path fill="#111333" d="M282.1,396.9c6.1,2.7,10.9,7.3,12.5,13.4c1.6,6-1.2,12.9-5.1,18.6c-8.5,12.5-21.9,21.8-34.4,30
					c1.7,0,3.4,0,5,0c-15.2-8.4-30-21.7-28-40.7c0.5-4.9,2.1-9.8,4.3-14.1c0.8-1.5,1.6-2.9,2.5-4.3c0.4-0.6,2.3-3.1,0.6-0.9
					c3.9-5-3.1-12.1-7.1-7.1c-6,7.7-9.6,17.5-10.4,27.2c-1.7,22.2,15,38.6,33,48.5c1.5,0.8,3.5,1,5,0c11.8-7.7,23.6-16.1,32.8-26.8
					c5.3-6.1,10.1-13.3,11.6-21.4c2-10.6-2.6-20.3-10.8-26.8c-2-1.6-4.2-3.1-6.6-4.2C281.3,385.6,276.2,394.2,282.1,396.9
					L282.1,396.9z"/>
			</g>
		</g>
		<g id="XMLID_164_">
			<circle id="XMLID_134_" fill="#FFFFFF" cx="259.5" cy="340.8" r="51.6"/>
			<g id="XMLID_122_">
				<path fill="#111333" d="M306.1,340.8c-0.3,19.3-12.2,37.2-30.6,43.8c-18.5,6.6-39.5,0.9-52-14.2c-12.5-15.1-13.9-37.2-3.8-53.9
					c10-16.4,29.8-25.3,48.7-21.5C290.3,299.4,305.8,318.6,306.1,340.8c0.1,6.4,10.1,6.4,10,0c-0.3-23.7-15-45-37.3-53.2
					c-22-8.1-47.9-1.1-62.8,17c-15.1,18.4-17.4,45-4.9,65.5c12.3,20.2,36.2,30.6,59.3,26.2c26.5-5,45.3-29,45.7-55.5
					C316.2,334.3,306.2,334.3,306.1,340.8z"/>
			</g>
		</g>
	</g>
</g>
</svg>
