<?xml version="1.0" encoding="utf-8"?>
<!-- Generator: Adobe Illustrator 19.0.0, SVG Export Plug-In . SVG Version: 6.00 Build 0)  -->
<svg version="1.0" id="Layer_1" xmlns="http://www.w3.org/2000/svg" xmlns:xlink="http://www.w3.org/1999/xlink" x="0px" y="0px"
	 viewBox="0 0 512 512" enable-background="new 0 0 512 512" xml:space="preserve">
<g id="left-upward-stem">
	<g id="left-middle-stem">
		<path id="XMLID_210_" fill="#FFFFFF" d="M239,480V302.7c-5-38.7-59-67.1-98.5-98.5"/>
		<g id="XMLID_205_">
			<path id="XMLID_133_" fill="#111333" d="M243.7,480.1c0-33.2,0-66.4,0-99.6c0-20.4,0-40.7,0-61.1c0-5.1,0.1-10.2,0-15.2
				c-0.2-9.2-4.2-18.3-9-26c-9.9-15.8-24.6-28-39.2-39.2c-17-13.1-35-24.9-51.8-38.2c-5-4-12.1,3.1-7.1,7.1
				c14.6,11.6,30.1,22.1,45.1,33.2c13.7,10.1,27.4,20.7,38.3,33.9c6.5,7.8,13.1,18.6,13.6,28.5c0.2,4.2,0,8.5,0,12.8
				c0,41.9,0,83.8,0,125.7c0,12.7,0,25.5,0,38.2C233.7,486.5,243.7,486.5,243.7,480.1L243.7,480.1z"/>
		</g>
	</g>
	<g id="left-large-leaf">
		<path id="XMLID_90_" fill="#00AA21" stroke="#111333" stroke-width="7" stroke-miterlimit="10" d="M148.6,207.6
			c0,0-10.2-19.3-3.1-40c7.1-20.8-15-3.3-15-3.3s16.7-36.8,0-42.7s-16.2,35.1-16.2,35.1c4.4-22.4-36.5-51-36.5-51
			s-7.7,24.1-2.4,44.3c5.3,20.2,32.5,35.6,32.5,35.6s-40.2-22.5-25.3,3.8s50.7,16.3,50.7,16.3s6.3-3.1,8.4,1.9
			S148.6,207.6,148.6,207.6z"/>
		<path id="XMLID_92_" fill="#00AA21" stroke="#111333" stroke-width="7" stroke-miterlimit="10" d="M85,129.6
			c0,0,26.6,60.8,48.3,63.9"/>
	</g>
</g>
<g id="right-upward-stem">
	<g id="left-middle-stem_1_">
		<path id="XMLID_204_" fill="#FFFFFF" d="M283,482V304.7c5-38.7,59-67.1,98.5-98.5"/>
		<g id="XMLID_198_">
			<path id="XMLID_140_" fill="#111333" d="M288.2,482.1c0-32.4,0-64.8,0-97.1c0-20.5,0-40.9,0-61.4c0-5.5,0-10.9,0-16.4
				c0-7.2,3.1-14.5,7-20.9c9.7-16,25.2-28.4,39.9-39.5c16.6-12.5,33.8-24,50.1-36.9c5-4-2.1-11-7.1-7.1
				c-14.8,11.7-30.5,22.2-45.6,33.5c-13.8,10.3-27.7,21.1-38.6,34.6c-7.7,9.6-15,21.5-15.7,34.1c-0.2,3.7,0,7.6,0,11.3
				c0,42.3,0,84.5,0,126.8c0,13,0,26,0,39.1C278.2,488.5,288.2,488.5,288.2,482.1L288.2,482.1z"/>
		</g>
	</g>
	<g id="right-large-leaf">
		<path id="XMLID_112_" fill="#00AA21" stroke="#111333" stroke-width="7" stroke-miterlimit="10" d="M375.7,207.6
			c0,0,10.2-19.3,3.1-40s15-3.3,15-3.3s-16.7-36.8,0-42.7c16.7-5.9,16.2,35.1,16.2,35.1c-4.4-22.4,36.5-51,36.5-51
			s7.7,24.1,2.4,44.3s-32.5,35.6-32.5,35.6s40.2-22.5,25.3,3.8s-50.7,16.3-50.7,16.3s-6.3-3.1-8.4,1.9S375.7,207.6,375.7,207.6z"/>
		<path id="XMLID_91_" fill="#00AA21" stroke="#111333" stroke-width="7" stroke-miterlimit="10" d="M439.2,129.6
			c0,0-26.6,60.8-48.3,63.9"/>
	</g>
</g>
<g id="parent-stem">
	<line id="XMLID_216_" fill="#FFFFFF" x1="261" y1="183" x2="261" y2="457"/>
	<g id="XMLID_211_">
		<path id="XMLID_8_" fill="#111333" d="M255.9,183.1c0,31,0,61.9,0,92.9c0,49.1,0,98.3,0,147.4c0,11.3,0,22.6,0,33.9
			c0,6.4,10,6.4,10,0c0-31,0-61.9,0-92.9c0-49.1,0-98.3,0-147.4c0-11.3,0-22.6,0-33.9C265.9,176.7,255.9,176.7,255.9,183.1
			L255.9,183.1z"/>
	</g>
</g>
<g id="left-child-stem">
	<path id="XMLID_203_" fill="#FFFFFF" d="M216.1,457.3c0,0,19.8-178.4-92.2-148.3"/>
	<g id="XMLID_192_">
		<path id="XMLID_122_" fill="#111333" d="M221.1,457.3c2.2-20,1.9-40.7-0.2-60.7c-3.2-31-11.4-68-39.1-86.4
			c-17.6-11.7-39.5-11.3-59.3-6.1c-6.2,1.6-3.6,11.3,2.7,9.6c16.1-4.3,33.9-5.3,48.8,3.4c12.3,7.2,20.6,19.5,26,32.4
			c11.3,27,13.1,57.9,12.4,86.8c-0.2,6.9-0.5,13.9-1.2,20.8C210.4,463.6,220.4,463.6,221.1,457.3L221.1,457.3z"/>
	</g>
</g>
<g id="right-child-stem">
	<path id="XMLID_188_" fill="#FFFFFF" d="M305.2,457.3c0,0-19.8-178.4,92.2-148.3"/>
	<g id="XMLID_182_">
		<path id="XMLID_7_" fill="#111333" d="M310.2,457.3c-2.1-18.6-1.9-37.8-0.2-56.5c2.4-27.7,8.8-63.1,32.8-80.7
			c15.6-11.4,35.3-11,53.3-6.3c6.2,1.6,8.9-8,2.7-9.6c-18-4.8-37.4-5.6-54.3,3.2c-14.1,7.3-24.1,20.4-30.6,34.6
			c-13.1,28.6-15.6,61.7-14.9,92.8c0.2,7.5,0.5,15,1.3,22.5C300.9,463.6,310.9,463.7,310.2,457.3L310.2,457.3z"/>
	</g>
</g>
<g id="flower-head-top">
	<g id="XMLID_3_">
		<path id="XMLID_191_" fill="#FFFD2A" d="M213.7,136c0,0-40-16.2-25.7,55.5c46.2,14.4,51.6-25.7,51.6-25.7"/>
		<g id="XMLID_179_">
			<path id="XMLID_113_" fill="#111333" d="M215.1,131.1c-4.8-1.9-10.7-2.2-15.8-1.1c-11.5,2.5-17,13.5-18.6,24.2
				c-1.9,12.8,0.1,25.9,2.5,38.5c0.3,1.7,1.9,3,3.5,3.5c16.2,4.9,35.3,5.3,47.5-8.2c5.1-5.7,9.2-13.4,10.3-21c0.9-6.3-8.8-9-9.6-2.7
				c-0.8,5.8-3.1,11-6.8,15.5c-9.6,11.9-25.4,10.7-38.7,6.7c1.2,1.2,2.3,2.3,3.5,3.5c-2.3-11.6-4.4-24.5-2-36.3
				c1.1-5.6,3.5-10.6,7.6-13c1.4-0.8,0.6-0.5,2.1-0.9c0.5-0.1,3.1-0.6,1.9-0.5c1.9-0.2,3.8-0.2,5.6,0.1c-1.6-0.2,0.7,0.1,1.1,0.2
				c0.6,0.1,1.1,0.3,1.7,0.4c0.5,0.1,1.1,0.3,1.6,0.5C218.4,143.2,221,133.5,215.1,131.1L215.1,131.1z"/>
		</g>
	</g>
	<g id="XMLID_12_">
		<path id="XMLID_177_" fill="#FFFD2A" d="M231.5,92.1c0,0,1.6-43.1-60.9-5.2c2.3,48.3,41.8,39.7,41.8,39.7"/>
		<g id="XMLID_170_">
			<path id="XMLID_101_" fill="#111333" d="M236.5,92.1c0.2-7.6-3-15.9-8.9-20.7c-17.1-13.9-44.4,2.1-59.6,11.1
				c-1.5,0.9-2.6,2.6-2.5,4.3c1,17.4,7.1,35.4,24.5,42.4c7.3,3,16,3.8,23.7,2.1c6.3-1.3,3.6-11-2.7-9.6c-0.5,0.1-2.2,0.3-0.4,0.1
				c-1.4,0.2-2.8,0.3-4.2,0.3c-4.2,0.1-7.8-0.4-11.8-1.8c-14-4.9-18.3-20-19.1-33.5c-0.8,1.4-1.7,2.9-2.5,4.3
				c10.4-6.3,22-12.9,34.2-14.6c2.9-0.4,6-0.5,8.8,0.1c1.9,0.4,4.2,1.5,5.2,2.4c2.9,2.4,3.8,4.8,4.7,8.3c0.2,0.8,0.3,1.6,0.4,2.4
				c-0.2-1.6,0,0.1,0,0.6c0,0.6,0.1,1.1,0.1,1.7C226.3,98.6,236.3,98.6,236.5,92.1L236.5,92.1z"/>
		</g>
	</g>
	<g id="XMLID_40_">
		<path id="XMLID_165_" fill="#FFFD2A" d="M309.5,132.2c0,0,40-16.2,25.7,55.5c-46.2,14.4-51.6-25.7-51.6-25.7"/>
		<g id="XMLID_160_">
			<path id="XMLID_6_" fill="#111333" d="M310.8,137.1c0.5-0.2,1.1-0.4,1.6-0.5c0.9-0.3,4-0.8,2.8-0.7c1.9-0.2,3.7-0.3,5.6-0.1
				c-1.2-0.1,1.5,0.4,1.9,0.5c1.6,0.5,0.6,0.1,2.1,0.9c4.1,2.3,6.5,7.4,7.6,13c2.4,11.8,0.3,24.6-2,36.3c1.2-1.2,2.3-2.3,3.5-3.5
				c-13.3,4-29.1,5.2-38.7-6.7c-3.7-4.6-5.9-9.7-6.8-15.5c-0.9-6.3-10.5-3.6-9.6,2.7c1.1,7.7,5.1,15.4,10.3,21
				c12.2,13.5,31.3,13.1,47.5,8.2c1.6-0.5,3.2-1.8,3.5-3.5c3.2-16.3,7.4-39.1-3-53.9c-5.3-7.5-13.9-10.4-22.8-9.2
				c-2,0.3-4.1,0.6-6,1.4C302.3,129.8,304.9,139.5,310.8,137.1L310.8,137.1z"/>
		</g>
	</g>
	<g id="XMLID_17_">
		<path id="XMLID_168_" fill="#FFFD2A" d="M289.9,90.9c0,0-1.6-43.1,60.9-5.2c-2.3,48.3-41.8,39.7-41.8,39.7"/>
		<g id="XMLID_154_">
			<path id="XMLID_87_" fill="#111333" d="M294.9,90.9c0-0.5,0-1.1,0-1.6c0-0.4,0.3-2.3,0-0.7c0.1-0.8,0.3-1.6,0.4-2.4
				c0.8-3.6,1.9-5.9,4.7-8.3c1.1-0.9,3.2-1.9,5.2-2.4c2.9-0.7,5.9-0.5,8.8-0.1c12.3,1.7,23.8,8.3,34.2,14.6
				c-0.8-1.4-1.7-2.9-2.5-4.3c-0.7,13.5-5.1,28.5-19.1,33.5c-4,1.4-7.6,1.9-11.8,1.8c-1.4,0-2.8-0.1-4.2-0.3c1.4,0.2,0.2,0-0.4-0.1
				c-6.3-1.3-9,8.3-2.7,9.6c7.8,1.7,16.4,0.8,23.7-2.1c17.3-7,23.5-25,24.5-42.4c0.1-1.7-1-3.4-2.5-4.3c-15.1-9.1-42.5-25-59.6-11.1
				c-5.9,4.8-9.1,13.1-8.9,20.7C285.1,97.3,295.1,97.3,294.9,90.9L294.9,90.9z"/>
		</g>
	</g>
	<g id="XMLID_11_">
		<path id="XMLID_152_" fill="#FFFD2A" d="M278.3,87c0,0,39.5-17.4-21.9-57.1C214,53,239,84.9,239,84.9"/>
		<g id="XMLID_146_">
			<path id="XMLID_10_" fill="#111333" d="M280.8,91.4c6.9-3.1,12.9-9.8,14.5-17.2c4.6-21.5-21.5-38.9-36.3-48.6c-1.5-1-3.5-0.8-5,0
				c-14.8,8.3-28.5,21.7-27.2,40c0.6,8.2,3.6,16.3,8.7,22.8c3.9,5.1,11-2,7.1-7.1c1.3,1.7,0.3,0.4-0.2-0.4c-0.7-1.1-1.4-2.3-2-3.4
				c-1.8-3.4-3-7.2-3.5-11c-1.7-15.1,10.1-25.5,22.2-32.2c-1.7,0-3.4,0-5,0c10,6.5,20.7,13.9,27.5,23.9c3.1,4.5,5.2,9.8,4,14.4
				c-1.2,4.6-4.9,8.1-9.7,10.2C269.9,85.3,275,94,280.8,91.4L280.8,91.4z"/>
		</g>
	</g>
	<g id="XMLID_31_">
		<path id="XMLID_141_" fill="#FFFD2A" d="M280.8,169.2c0,0,39.5,17.4-21.9,57.1c-42.5-23.1-17.5-54.9-17.5-54.9"/>
		<g id="XMLID_136_">
			<path id="XMLID_5_" fill="#111333" d="M278.3,173.6c4.7,2.1,8.5,5.6,9.7,10.2c1.2,4.4-0.8,9.6-3.7,14
				c-6.8,10.2-17.7,17.7-27.8,24.3c1.7,0,3.4,0,5,0c-12-6.7-23.9-17.1-22.2-32.2c0.4-3.7,1.6-7.5,3.3-10.8c0.6-1.2,1.3-2.4,2-3.5
				c0.3-0.6,1.9-2.6,0.3-0.5c3.9-5-3.1-12.2-7.1-7.1c-5,6.5-8.1,14.6-8.7,22.8c-1.3,18.3,12.4,31.8,27.2,40c1.5,0.8,3.5,1,5,0
				c14.9-9.7,40.9-27.1,36.3-48.6c-1.6-7.4-7.6-14.1-14.5-17.2C277.5,162.3,272.4,170.9,278.3,173.6L278.3,173.6z"/>
		</g>
	</g>
	<g id="XMLID_2_">
		<circle id="XMLID_134_" fill="#FFFD2A" cx="260.5" cy="127.4" r="41.8"/>
		<g id="XMLID_129_">
			<path id="XMLID_1_" fill="#111333" d="M297.2,127.4c-0.3,15.2-9.5,29.3-24,34.5c-14.5,5.3-31,0.9-41-10.9
				c-9.9-11.8-11.2-29.1-3.4-42.3c7.8-13.1,23.5-20.4,38.5-17.4C284.7,94.7,297,109.8,297.2,127.4c0.1,6.4,10.1,6.4,10,0
				c-0.3-19.6-12.3-37-30.7-43.9c-18.3-6.9-39.8-0.9-52.2,14.3c-12.4,15.2-14.1,37.2-3.8,54c10.2,16.6,29.8,25,48.8,21.5
				c22-4,37.5-23.9,37.9-45.9C307.3,120.9,297.3,120.9,297.2,127.4z"/>
		</g>
	</g>
</g>
<g id="small-flower-right">
	<g id="XMLID_127_">
		<path id="XMLID_144_" fill="#FFFD2A" d="M100.4,312.8c0,0-20.2-8.2-13,28c23.3,7.3,26-13,26-13"/>
		<g id="XMLID_124_">
			<path id="XMLID_143_" fill="#111333" d="M101.7,308c-4.2-1.7-9.6-1.2-13.4,1.2c-10.4,6.6-7.6,23-5.7,32.9c0.3,1.7,1.9,3,3.5,3.5
				c9,2.6,19.2,2.7,26.1-4.5c3-3.1,5.4-7.6,6-11.9c0.9-6.3-8.7-9-9.6-2.7c-0.4,2.7-1.1,4.6-2.8,6.7c-4.2,5.4-11.3,4.5-17.1,2.8
				c1.2,1.2,2.3,2.3,3.5,3.5c-1-5.5-2.1-11.6-1-17.2c0.5-2.6,1.4-4.2,2.9-5c-0.7,0.3,2.2-0.4,0.9-0.3c0.6-0.1,3,0.2,1.6-0.1
				c0.8,0.1,1.7,0.3,2.5,0.6C105,320,107.6,310.3,101.7,308L101.7,308z"/>
		</g>
	</g>
	<g id="XMLID_119_">
		<path id="XMLID_121_" fill="#FFFD2A" d="M109.3,290.7c0,0,0.8-21.7-30.7-2.6c1.1,24.4,21.1,20,21.1,20"/>
		<g id="XMLID_114_">
			<path id="XMLID_120_" fill="#111333" d="M114.3,290.7c0.1-4.8-2.1-10-6-12.8c-9.8-7-23.6,0.7-32.2,5.9c-1.4,0.9-2.6,2.6-2.5,4.3
				c0.6,9.6,3.9,19.4,13.4,23.4c4.4,1.9,9.4,2.4,14,1.4c6.3-1.3,3.6-11-2.7-9.6c-0.2,0-0.4,0.1-0.6,0.1c1.8-0.1-0.3,0-0.7,0
				c-2.1,0-3.3,0-5.2-0.7c-6.2-2.1-7.9-8.7-8.3-14.6c-0.8,1.4-1.7,2.9-2.5,4.3c4.9-2.9,10.2-6.1,16-7c1.3-0.2,2.6-0.3,3.9,0
				c0.8,0.2,1.6,0.7,1.6,0.7c1.5,1.3,1.7,3.3,1.7,4.6C104.2,297.1,114.2,297.1,114.3,290.7L114.3,290.7z"/>
		</g>
	</g>
	<g id="XMLID_111_">
		<path id="XMLID_110_" fill="#FFFD2A" d="M148.6,310.9c0,0,20.2-8.2,13,28c-23.3,7.3-26-13-26-13"/>
		<g id="XMLID_104_">
			<path id="XMLID_109_" fill="#111333" d="M150,315.7c0.8-0.3,1.6-0.5,2.5-0.6c-1.5,0.2,1,0,1.6,0.1c-1.2-0.1,1.6,0.6,0.9,0.3
				c1.5,0.8,2.3,2.4,2.9,5c1.2,5.6,0.1,11.7-1,17.2c1.2-1.2,2.3-2.3,3.5-3.5c-5.8,1.7-12.9,2.6-17.1-2.8c-1.7-2.1-2.4-4-2.8-6.7
				c-0.9-6.3-10.6-3.6-9.6,2.7c0.6,4.3,3,8.8,6,11.9c7,7.2,17.1,7.2,26.1,4.5c1.6-0.5,3.2-1.8,3.5-3.5c1.9-9.9,4.7-26.4-5.7-32.9
				c-3.8-2.4-9.2-2.9-13.4-1.2C141.4,308.4,144,318.1,150,315.7L150,315.7z"/>
		</g>
	</g>
	<g id="XMLID_103_">
		<path id="XMLID_100_" fill="#FFFD2A" d="M138.8,290c0,0-0.8-21.7,30.7-2.6c-1.1,24.4-21.1,20-21.1,20"/>
		<g id="XMLID_88_">
			<path id="XMLID_99_" fill="#111333" d="M143.8,290c0-1.4,0.3-3.4,1.7-4.6c-0.1,0.1,0.8-0.5,1.6-0.7c1.1-0.3,2.3-0.2,3.4,0
				c5.9,0.8,11.5,4.1,16.4,7.1c-0.8-1.4-1.7-2.9-2.5-4.3c-0.4,5.9-2.1,12.5-8.3,14.6c-1.8,0.6-3,0.7-4.9,0.7c-0.4,0-2.2-0.1-1.4-0.1
				c0.9,0.1,0,0-0.2,0c-6.3-1.3-9,8.3-2.7,9.6c4.6,1,9.7,0.5,14-1.4c9.5-4.1,12.8-13.8,13.4-23.4c0.1-1.7-1-3.5-2.5-4.3
				c-8.7-5.1-22.5-12.8-32.2-5.9c-4,2.8-6.2,8-6,12.8C134,296.5,144,296.5,143.8,290L143.8,290z"/>
		</g>
	</g>
	<g id="XMLID_95_">
		<path id="XMLID_86_" fill="#FFFD2A" d="M132.9,288.1c0,0,19.9-8.8-11-28.8c-21.4,11.6-8.8,27.7-8.8,27.7"/>
		<g id="XMLID_81_">
			<path id="XMLID_85_" fill="#111333" d="M135.4,292.4c4.1-1.9,7.5-6,8.5-10.4c2.6-12-11.1-21.5-19.5-27.1c-1.5-1-3.6-0.9-5,0
				c-8.1,4.6-15.3,11.8-15,21.7c0.1,4.4,1.6,9.3,4.3,12.8c3.9,5,12.6,0.1,8.6-5c-6.4-8.3-1.1-16.2,7-20.9c-1.7,0-3.4,0-5,0
				c4.7,3.1,9.7,6.5,13,11.2c1.4,2,2.2,3.9,1.7,5.6c-0.4,1.4-1.4,2.4-3.7,3.4C124.5,286.4,129.6,295.1,135.4,292.4L135.4,292.4z"/>
		</g>
	</g>
	<g id="XMLID_66_">
		<path id="XMLID_79_" fill="#FFFD2A" d="M134.2,329.6c0,0,19.9,8.8-11,28.8c-21.4-11.6-8.8-27.7-8.8-27.7"/>
		<g id="XMLID_74_">
			<path id="XMLID_78_" fill="#111333" d="M131.6,333.9c2.2,1,3.2,1.9,3.7,3.4c1.8,6-10.1,13.7-14.7,16.8c1.7,0,3.4,0,5,0
				c-8.1-4.6-13.4-12.5-7-20.9c3.9-5.1-4.8-10.1-8.6-5c-2.7,3.5-4.2,8.4-4.3,12.8c-0.3,9.9,6.9,17.1,15,21.7c1.5,0.9,3.6,1,5,0
				c8.4-5.6,22.1-15,19.5-27.1c-1-4.4-4.3-8.5-8.5-10.4C130.9,322.6,125.8,331.2,131.6,333.9L131.6,333.9z"/>
		</g>
	</g>
	<g id="XMLID_4_">
		<circle id="XMLID_72_" fill="#FFFD2A" cx="123.9" cy="308.4" r="21.1"/>
		<g id="XMLID_59_">
			<path id="XMLID_71_" fill="#111333" d="M140,308.4c-0.3,8.8-7.1,16.1-16.1,16.1c-8.8,0-16.1-7.3-16.1-16.1
				c0-8.5,6.9-15.7,15.4-16C132.5,292,139.7,299.4,140,308.4c0.2,6.4,10.2,6.4,10,0c-0.5-14.2-11.6-26.1-26.1-26.1
				c-14.2,0-26.1,11.9-26.1,26.1c0,14.2,11.9,26.1,26.1,26.1c14.5,0,25.6-11.9,26.1-26.1C150.2,302,140.2,302,140,308.4z"/>
		</g>
	</g>
</g>
<g id="small-flower-left">
	<g id="XMLID_183_">
		<path id="XMLID_217_" fill="#FFFD2A" d="M373.4,311.8c0,0-20.2-8.2-13,28c23.3,7.3,26-13,26-13"/>
		<g id="XMLID_69_">
			<path id="XMLID_150_" fill="#111333" d="M374.7,307c-4.2-1.7-9.6-1.2-13.4,1.2c-10.4,6.6-7.6,23-5.7,32.9c0.3,1.7,1.9,3,3.5,3.5
				c9,2.6,19.2,2.7,26.1-4.5c3-3.1,5.4-7.6,6-11.9c0.9-6.3-8.7-9-9.6-2.7c-0.4,2.7-1.1,4.6-2.8,6.7c-4.2,5.4-11.3,4.5-17.1,2.8
				c1.2,1.2,2.3,2.3,3.5,3.5c-1-5.5-2.1-11.6-1-17.2c0.5-2.6,1.4-4.2,2.9-5c-0.7,0.3,2.2-0.4,0.9-0.3c0.6-0.1,3,0.2,1.6-0.1
				c0.8,0.1,1.7,0.3,2.5,0.6C378,319,380.6,309.3,374.7,307L374.7,307z"/>
		</g>
	</g>
	<g id="XMLID_175_">
		<path id="XMLID_67_" fill="#FFFD2A" d="M382.3,289.7c0,0,0.8-21.7-30.7-2.6c1.1,24.4,21.1,20,21.1,20"/>
		<g id="XMLID_60_">
			<path id="XMLID_65_" fill="#111333" d="M387.3,289.7c0.1-4.8-2.1-10-6-12.8c-9.8-7-23.6,0.7-32.2,5.9c-1.4,0.9-2.6,2.6-2.5,4.3
				c0.6,9.6,3.9,19.4,13.4,23.4c4.4,1.9,9.4,2.4,14,1.4c6.3-1.3,3.6-11-2.7-9.6c-0.2,0-0.4,0.1-0.6,0.1c1.8-0.1-0.3,0-0.7,0
				c-2.1,0-3.3,0-5.2-0.7c-6.2-2.1-7.9-8.7-8.3-14.6c-0.8,1.4-1.7,2.9-2.5,4.3c4.9-2.9,10.2-6.1,16-7c1.3-0.2,2.6-0.3,3.9,0
				c0.8,0.2,1.6,0.7,1.6,0.7c1.5,1.3,1.7,3.3,1.7,4.6C377.2,296.1,387.2,296.1,387.3,289.7L387.3,289.7z"/>
		</g>
	</g>
	<g id="XMLID_167_">
		<path id="XMLID_58_" fill="#FFFD2A" d="M421.6,309.9c0,0,20.2-8.2,13,28c-23.3,7.3-26-13-26-13"/>
		<g id="XMLID_52_">
			<path id="XMLID_57_" fill="#111333" d="M423,314.7c0.8-0.3,1.6-0.5,2.5-0.6c-1.5,0.2,1,0,1.6,0.1c-1.2-0.1,1.6,0.6,0.9,0.3
				c1.5,0.8,2.3,2.4,2.9,5c1.2,5.6,0.1,11.7-1,17.2c1.2-1.2,2.3-2.3,3.5-3.5c-5.8,1.7-12.9,2.6-17.1-2.8c-1.7-2.1-2.4-4-2.8-6.7
				c-0.9-6.3-10.6-3.6-9.6,2.7c0.6,4.3,3,8.8,6,11.9c7,7.2,17.1,7.2,26.1,4.5c1.6-0.5,3.2-1.8,3.5-3.5c1.9-9.9,4.7-26.4-5.7-32.9
				c-3.8-2.4-9.2-2.9-13.4-1.2C414.4,307.4,417,317.1,423,314.7L423,314.7z"/>
		</g>
	</g>
	<g id="XMLID_159_">
		<path id="XMLID_50_" fill="#FFFD2A" d="M411.8,289c0,0-0.8-21.7,30.7-2.6c-1.1,24.4-21.1,20-21.1,20"/>
		<g id="XMLID_45_">
			<path id="XMLID_49_" fill="#111333" d="M416.8,289c0-1.4,0.3-3.4,1.7-4.6c-0.1,0.1,0.8-0.5,1.6-0.7c1.1-0.3,2.3-0.2,3.4,0
				c5.9,0.8,11.5,4.1,16.4,7.1c-0.8-1.4-1.7-2.9-2.5-4.3c-0.4,5.9-2.1,12.5-8.3,14.6c-1.8,0.6-3,0.7-4.9,0.7c-0.4,0-2.2-0.1-1.4-0.1
				c0.9,0.1,0,0-0.2,0c-6.3-1.3-9,8.3-2.7,9.6c4.6,1,9.7,0.5,14-1.4c9.5-4.1,12.8-13.8,13.4-23.4c0.1-1.7-1-3.5-2.5-4.3
				c-8.7-5.1-22.5-12.8-32.2-5.9c-4,2.8-6.2,8-6,12.8C407,295.5,417,295.5,416.8,289L416.8,289z"/>
		</g>
	</g>
	<g id="XMLID_151_">
		<path id="XMLID_43_" fill="#FFFD2A" d="M405.9,287.1c0,0,19.9-8.8-11-28.8c-21.4,11.6-8.8,27.7-8.8,27.7"/>
		<g id="XMLID_36_">
			<path id="XMLID_41_" fill="#111333" d="M408.4,291.4c4.1-1.9,7.5-6,8.5-10.4c2.6-12-11.1-21.5-19.5-27.1c-1.5-1-3.6-0.9-5,0
				c-8.1,4.6-15.3,11.8-15,21.7c0.1,4.4,1.6,9.3,4.3,12.8c3.9,5,12.6,0.1,8.6-5c-6.4-8.3-1.1-16.2,7-20.9c-1.7,0-3.4,0-5,0
				c4.7,3.1,9.7,6.5,13,11.2c1.4,2,2.2,3.9,1.7,5.6c-0.4,1.4-1.4,2.4-3.7,3.4C397.5,285.4,402.6,294.1,408.4,291.4L408.4,291.4z"/>
		</g>
	</g>
	<g id="XMLID_142_">
		<path id="XMLID_33_" fill="#FFFD2A" d="M407.2,328.6c0,0,19.9,8.8-11,28.8c-21.4-11.6-8.8-27.7-8.8-27.7"/>
		<g id="XMLID_27_">
			<path id="XMLID_32_" fill="#111333" d="M404.6,332.9c2.2,1,3.2,1.9,3.7,3.4c1.8,6-10.1,13.7-14.7,16.8c1.7,0,3.4,0,5,0
				c-8.1-4.6-13.4-12.5-7-20.9c3.9-5.1-4.8-10.1-8.6-5c-2.7,3.5-4.2,8.4-4.3,12.8c-0.3,9.9,6.9,17.1,15,21.7c1.5,0.9,3.6,1,5,0
				c8.4-5.6,22.1-15,19.5-27.1c-1-4.4-4.3-8.5-8.5-10.4C403.9,321.6,398.8,330.2,404.6,332.9L404.6,332.9z"/>
		</g>
	</g>
	<g id="XMLID_89_">
		<circle id="XMLID_25_" fill="#FFFD2A" cx="396.9" cy="307.4" r="21.1"/>
		<g id="XMLID_20_">
			<path id="XMLID_24_" fill="#111333" d="M413,307.4c-0.3,8.8-7.1,16.1-16.1,16.1c-8.8,0-16.1-7.3-16.1-16.1
				c0-8.5,6.9-15.7,15.4-16C405.5,291,412.7,298.4,413,307.4c0.2,6.4,10.2,6.4,10,0c-0.5-14.2-11.6-26.1-26.1-26.1
				c-14.2,0-26.1,11.9-26.1,26.1c0,14.2,11.9,26.1,26.1,26.1c14.5,0,25.6-11.9,26.1-26.1C423.2,301,413.2,301,413,307.4z"/>
		</g>
	</g>
</g>
<path id="left-stray-leaf" fill="#5BFF15" stroke="#111333" stroke-width="6" stroke-miterlimit="10" d="M24.6,206.6
	c0,0,54.3-10.3,43.6,40.5C19.4,247.1,24.6,206.6,24.6,206.6z"/>
<path id="right-stray-leaf" fill="#5BFF15" stroke="#111333" stroke-width="6" stroke-miterlimit="10" d="M487.4,206.6
	c0,0-54.3-10.3-43.6,40.5C492.6,247.1,487.4,206.6,487.4,206.6z"/>
</svg>
